<?xml version="1.0" standalone="no"?><!DOCTYPE svg PUBLIC "-//W3C//DTD SVG 1.1//EN" "http://www.w3.org/Graphics/SVG/1.1/DTD/svg11.dtd"><svg t="1695776165688" class="icon" viewBox="0 0 1024 1024" version="1.1" xmlns="http://www.w3.org/2000/svg" p-id="3697" xmlns:xlink="http://www.w3.org/1999/xlink" width="200" height="200"><path d="M868.266667 768H155.733333C104.533333 768 64 727.466667 64 676.266667V219.733333C64 168.533333 104.533333 128 155.733333 128h714.666667c49.066667 0 91.733333 40.533333 91.733333 91.733333v458.666667c-2.133333 49.066667-42.666667 89.6-93.866666 89.6zM821.333333 938.666667h-618.666666c-23.466667 0-42.666667-19.2-42.666667-42.666667s19.2-42.666667 42.666667-42.666667h618.666666c23.466667 0 42.666667 19.2 42.666667 42.666667s-19.2 42.666667-42.666667 42.666667z" fill="#ffffff" p-id="3698" data-spm-anchor-id="a313x.search_index.0.i24.26d53a81tVoMMr" class="selected"></path><path d="M814.933333 486.4c-64 0-117.333333 53.333333-117.333333 117.333333s53.333333 117.333333 117.333333 117.333334 117.333333-53.333333 117.333334-117.333334-53.333333-117.333333-117.333334-117.333333z m46.933334 106.666667v23.466666h-32v12.8h32v21.333334h-32v25.6h-32v-25.6h-32v-21.333334h32v-12.8H768v-21.333333h25.6l-32-55.466667h32l21.333333 42.666667 21.333334-42.666667h32l-32 53.333334h25.6z m0 0M398.933333 411.733333h-132.266666v130.133334c-72.533333 4.266667-132.266667-51.2-134.4-121.6-4.266667-76.8 51.2-138.666667 128-142.933334 72.533333-4.266667 132.266667 51.2 138.666666 134.4z" fill="#1d4eac" p-id="3699" data-spm-anchor-id="a313x.search_index.0.i25.26d53a81tVoMMr" class="selected"></path><path d="M315.733333 582.4v-130.133333h128c4.266667 72.533333-53.333333 130.133333-128 130.133333zM514.133333 311.466667h343.466667v34.133333H514.133333zM512 422.4v-34.133333h343.466667c2.133333 10.666667 2.133333 21.333333 4.266666 34.133333H512zM512 467.2h198.4v34.133333H512z" fill="#1d4eac" p-id="3700" data-spm-anchor-id="a313x.search_index.0.i26.26d53a81tVoMMr" class="selected"></path></svg>